# xmcd
# 
# Track frame offsets:
#     150
#     9654
#     20795
#     33527
#     43398
#     49954
#     64156
#     74940
#     84742
#     95613
#     106180
#     115123
#     128546
#     144399
# 
# Disc length: 2065
# 
# Revision: 2
# Processed by: cddbd v1.5.2PL0 Copyright (c) Steve Scherf et al.
# Submitted via: fre:ac v1.0.17
# 
DISCID=cf080f0e
DTITLE=Eric Clapton - Phenomenon
DYEAR=0
DGENRE=
TTITLE0=West Coast Idea
TTITLE1=Snake Drive
TTITLE2=Freight Loader (with Jimmy Page)
TTITLE3=Tribute to Elmore
TTITLE4=Choker (with Jimmy Page)
TTITLE5=Dragging my Tail (with Jimmy Page)
TTITLE6=Miles Road (with Jimmy Page)
TTITLE7=I'm Your Witch/Doctor (with John Mayall and His Bluesbreakers)
TTITLE8=Boom Boom (w/ Yardbirds)
TTITLE9=Honey in Your Hips (w/ Yardbirds)
TTITLE10=Talkin' About You (w/ Yardbirds)
TTITLE11=You Can't Judge a Book By Lookin' At the Cover (w/Yardbirds)
TTITLE12=Louise (w/ Yardbirds)
TTITLE13=Putty (In Your Hands) (w/Yardbirds)
EXTD=
EXTT0=
EXTT1=
EXTT2=
EXTT3=
EXTT4=
EXTT5=
EXTT6=
EXTT7=
EXTT8=
EXTT9=
EXTT10=
EXTT11=
EXTT12=
EXTT13=
PLAYORDER=
